<?xml version="1.0" encoding="us-ascii" standalone="no"?><svg xmlns="http://www.w3.org/2000/svg" xmlns:xlink="http://www.w3.org/1999/xlink" contentStyleType="text/css" height="407px" preserveAspectRatio="none" style="width:720px;height:407px;background:#FFFFFF;" version="1.1" viewBox="0 0 720 407" width="720px" zoomAndPan="magnify"><defs/><g><ellipse cx="359.5" cy="16" fill="#222222" rx="10" ry="10" style="stroke:#222222;stroke-width:1.0;"/><g id="login"><rect fill="#F1F1F1" height="52.7031" rx="12.5" ry="12.5" style="stroke:#181818;stroke-width:0.5;" width="83" x="318" y="87"/><line style="stroke:#181818;stroke-width:0.5;" x1="318" x2="401" y1="114.6094" y2="114.6094"/><text fill="#000000" font-family="sans-serif" font-size="14" lengthAdjust="spacing" textLength="30" x="344.5" y="106.5332">login</text><text fill="#000000" font-family="sans-serif" font-size="12" lengthAdjust="spacing" textLength="63" x="323" y="132.0664">Login Page</text></g><g id="index"><rect fill="#F1F1F1" height="52.7031" rx="12.5" ry="12.5" style="stroke:#181818;stroke-width:0.5;" width="163" x="278" y="218"/><line style="stroke:#181818;stroke-width:0.5;" x1="278" x2="441" y1="245.6094" y2="245.6094"/><text fill="#000000" font-family="sans-serif" font-size="14" lengthAdjust="spacing" textLength="33" x="343" y="237.5332">index</text><text fill="#000000" font-family="sans-serif" font-size="12" lengthAdjust="spacing" textLength="143" x="283" y="263.0664">Welcome Page (Backend)</text></g><g id="posts"><rect fill="#F1F1F1" height="52.7031" rx="12.5" ry="12.5" style="stroke:#181818;stroke-width:0.5;" width="117" x="7" y="349"/><line style="stroke:#181818;stroke-width:0.5;" x1="7" x2="124" y1="376.6094" y2="376.6094"/><text fill="#000000" font-family="sans-serif" font-size="14" lengthAdjust="spacing" textLength="34" x="48.5" y="368.5332">posts</text><text fill="#000000" font-family="sans-serif" font-size="12" lengthAdjust="spacing" textLength="97" x="12" y="394.0664">Create Text Posts</text></g><g id="pages"><rect fill="#F1F1F1" height="52.7031" rx="12.5" ry="12.5" style="stroke:#181818;stroke-width:0.5;" width="120" x="159.5" y="349"/><line style="stroke:#181818;stroke-width:0.5;" x1="159.5" x2="279.5" y1="376.6094" y2="376.6094"/><text fill="#000000" font-family="sans-serif" font-size="14" lengthAdjust="spacing" textLength="39" x="200" y="368.5332">pages</text><text fill="#000000" font-family="sans-serif" font-size="12" lengthAdjust="spacing" textLength="100" x="164.5" y="394.0664">Create Webpages</text></g><g id="media"><rect fill="#F1F1F1" height="52.7031" rx="12.5" ry="12.5" style="stroke:#181818;stroke-width:0.5;" width="90" x="314.5" y="349"/><line style="stroke:#181818;stroke-width:0.5;" x1="314.5" x2="404.5" y1="376.6094" y2="376.6094"/><text fill="#000000" font-family="sans-serif" font-size="14" lengthAdjust="spacing" textLength="38" x="340.5" y="368.5332">media</text><text fill="#000000" font-family="sans-serif" font-size="12" lengthAdjust="spacing" textLength="70" x="319.5" y="394.0664">Upload Files</text></g><g id="settings"><rect fill="#F1F1F1" height="52.7031" rx="12.5" ry="12.5" style="stroke:#181818;stroke-width:0.5;" width="117" x="440" y="349"/><line style="stroke:#181818;stroke-width:0.5;" x1="440" x2="557" y1="376.6094" y2="376.6094"/><text fill="#000000" font-family="sans-serif" font-size="14" lengthAdjust="spacing" textLength="49" x="474" y="368.5332">settings</text><text fill="#000000" font-family="sans-serif" font-size="12" lengthAdjust="spacing" textLength="97" x="445" y="394.0664">Frontend Settings</text></g><g id="users"><rect fill="#F1F1F1" height="52.7031" rx="12.5" ry="12.5" style="stroke:#181818;stroke-width:0.5;" width="121" x="592" y="349"/><line style="stroke:#181818;stroke-width:0.5;" x1="592" x2="713" y1="376.6094" y2="376.6094"/><text fill="#000000" font-family="sans-serif" font-size="14" lengthAdjust="spacing" textLength="35" x="635" y="368.5332">users</text><text fill="#000000" font-family="sans-serif" font-size="12" lengthAdjust="spacing" textLength="101" x="597" y="394.0664">Usermanagement</text></g><!--link *start* to login--><g id="link_*start*_login"><path d="M359.5,26.16 C359.5,39.98 359.5,60.67 359.5,80.74 " fill="none" id="*start*-to-login" style="stroke:#181818;stroke-width:1.0;"/><polygon fill="#181818" points="359.5,86.74,363.5,77.74,359.5,81.74,355.5,77.74,359.5,86.74" style="stroke:#181818;stroke-width:1.0;"/></g><!--link login to index--><g id="link_login_index"><path d="M359.5,140.3 C359.5,162.79 359.5,189.26 359.5,211.75 " fill="none" id="login-to-index" style="stroke:#181818;stroke-width:1.0;"/><polygon fill="#181818" points="359.5,217.75,363.5,208.75,359.5,212.75,355.5,208.75,359.5,217.75" style="stroke:#181818;stroke-width:1.0;"/><text fill="#000000" font-family="sans-serif" font-size="13" lengthAdjust="spacing" textLength="31" x="360.5" y="184.4951">Login</text></g><!--link index to posts--><g id="link_index_posts"><path d="M301.06,271.14 C249.65,293.7 180.6944,323.9592 129.3244,346.4992 " fill="none" id="index-to-posts" style="stroke:#181818;stroke-width:1.0;"/><polygon fill="#181818" points="123.83,348.91,133.6787,348.9567,128.4086,346.901,130.4643,341.6309,123.83,348.91" style="stroke:#181818;stroke-width:1.0;"/></g><!--link index to pages--><g id="link_index_pages"><path d="M331.51,271.3 C307.09,293.79 276.2618,322.1935 251.8618,344.6835 " fill="none" id="index-to-pages" style="stroke:#181818;stroke-width:1.0;"/><polygon fill="#181818" points="247.45,348.75,256.7787,345.5915,251.1265,345.3613,251.3567,339.7091,247.45,348.75" style="stroke:#181818;stroke-width:1.0;"/></g><!--link index to media--><g id="link_index_media"><path d="M359.5,271.3 C359.5,293.79 359.5,320.26 359.5,342.75 " fill="none" id="index-to-media" style="stroke:#181818;stroke-width:1.0;"/><polygon fill="#181818" points="359.5,348.75,363.5,339.75,359.5,343.75,355.5,339.75,359.5,348.75" style="stroke:#181818;stroke-width:1.0;"/></g><!--link index to settings--><g id="link_index_settings"><path d="M387.29,271.3 C411.54,293.79 442.1224,322.1782 466.3524,344.6682 " fill="none" id="index-to-settings" style="stroke:#181818;stroke-width:1.0;"/><polygon fill="#181818" points="470.75,348.75,466.8748,339.6956,467.0853,345.3485,461.4324,345.559,470.75,348.75" style="stroke:#181818;stroke-width:1.0;"/></g><!--link index to users--><g id="link_index_users"><path d="M417.74,271.14 C468.97,293.7 537.6786,323.9525 588.8786,346.4925 " fill="none" id="index-to-users" style="stroke:#181818;stroke-width:1.0;"/><polygon fill="#181818" points="594.37,348.91,587.7445,341.6228,589.7938,346.8954,584.5212,348.9447,594.37,348.91" style="stroke:#181818;stroke-width:1.0;"/><text fill="#000000" font-family="sans-serif" font-size="13" lengthAdjust="spacing" textLength="118" x="525.5" y="315.4951">Access Level Check</text></g><!--SRC=[JO_12i8m44Jl-nLxLC4Vo47GGayU19KUn4DCXnfCaz94wUURRgtqDCpExBxajhdpThjZ5nhhYKGK7qVXasumJQHYVOs1Vo6HMCKLd0ajfCohWpOl-7ezfRBMXPZYqkVYqhUehLxuY9IiRvQLTqGVCtbl36Ba8pvmN3nXNaHoNd7HGoVm1KFYan19GF-amcCYam0LNpiNTCsbTUDmfYek- -1J_WEVvuUGyFD6bbRxVAM5JqHV]--></g></svg>